<?xml version="1.0" encoding="UTF-8"?>
<!DOCTYPE svg PUBLIC "-//W3C//DTD SVG 1.1//EN" "http://www.w3.org/Graphics/SVG/1.1/DTD/svg11.dtd">
<svg xmlns="http://www.w3.org/2000/svg" xmlns:xlink="http://www.w3.org/1999/xlink" version="1.1" viewBox="-0.5 -0.5 76 76" style="background-color: rgb(255, 255, 255);"><defs/><g><rect x="0" y="0" fill="none" stroke="none" pointer-events="all"/><path d="M 0 75 L 75 75 L 75 0 L 0 0 Z" fill="#a9c2b4" stroke="none" pointer-events="all"/><path d="M 16.32 12.88 L 16.32 41.4 L 12.43 41.4 L 12.43 55.69 L 16.32 55.69 L 16.32 62.12 L 18.31 62.12 L 18.31 55.69 L 22.22 55.69 L 22.22 41.4 L 18.31 41.4 L 18.31 12.88 Z M 14.42 43.39 L 20.24 43.39 L 20.24 53.7 L 14.42 53.7 Z M 36.51 12.88 L 36.51 20.48 L 32.62 20.48 L 32.62 34.76 L 36.51 34.76 L 36.51 62.12 L 38.49 62.12 L 38.49 34.76 L 42.38 34.76 L 42.38 20.48 L 38.49 20.48 L 38.49 12.88 Z M 34.6 22.46 L 40.4 22.46 L 40.4 32.78 L 34.6 32.78 Z M 56.67 12.88 L 56.67 36.35 L 52.78 36.35 L 52.78 50.63 L 56.67 50.63 L 56.67 62.12 L 58.65 62.12 L 58.65 50.63 L 62.57 50.63 L 62.57 36.35 L 58.65 36.35 L 58.65 12.88 Z M 54.76 38.33 L 60.58 38.33 L 60.58 48.65 L 54.76 48.65 Z" fill="#ffffff" stroke="none" pointer-events="all"/></g></svg>