<?xml version="1.0" encoding="UTF-8"?>
<!DOCTYPE svg PUBLIC "-//W3C//DTD SVG 1.1//EN" "http://www.w3.org/Graphics/SVG/1.1/DTD/svg11.dtd">
<svg xmlns="http://www.w3.org/2000/svg" xmlns:xlink="http://www.w3.org/1999/xlink" version="1.1" viewBox="-0.5 -0.5 76 76"><defs/><g><rect x="0" y="0" fill="none" stroke="none" pointer-events="all"/><path d="M 0 75 L 75 75 L 75 0 L 0 0 Z" fill="#a9c2b4" stroke="none" pointer-events="all"/><path d="M 36.93 14.42 C 33.33 14.42 29.74 15.32 26.43 17.04 C 19.63 20.53 15.08 27.04 14.23 34.44 L 16.19 34.66 C 16.96 27.94 21.14 22.01 27.35 18.78 C 32.2 16.3 37.67 15.74 42.78 17.25 C 47.04 18.47 50.61 21.06 53.07 24.55 L 48.1 28.15 L 61.06 33.97 L 59.63 19.84 L 54.68 23.39 C 51.98 19.55 48.04 16.69 43.36 15.34 C 41.24 14.71 39.1 14.39 36.93 14.42 Z M 57.7 40.24 C 56.96 46.98 52.83 52.94 46.61 56.16 C 41.77 58.68 36.3 59.26 31.19 57.78 C 27.12 56.59 23.7 54.21 21.24 50.98 L 26.59 47.51 L 13.94 41.08 L 14.68 55.26 L 19.58 52.06 C 22.3 55.69 26.11 58.36 30.63 59.68 C 32.67 60.26 34.79 60.56 36.88 60.56 C 40.53 60.56 44.18 59.68 47.54 57.91 C 54.31 54.37 58.86 47.86 59.68 40.45 Z" fill="#ffffff" stroke="none" pointer-events="all"/></g></svg>